<?xml version="1.0" encoding="utf-8"?>
<!-- Generator: Adobe Illustrator 22.0.0, SVG Export Plug-In . SVG Version: 6.00 Build 0)  -->
<svg version="1.1" id="Capa_1" xmlns="http://www.w3.org/2000/svg" xmlns:xlink="http://www.w3.org/1999/xlink" x="0px" y="0px"
	 viewBox="0 0 32 32" style="enable-background:new 0 0 32 32;" xml:space="preserve">
<style type="text/css">
	.st0{fill:#003DFF;}
</style>
<path class="st0" d="M14.6,17.2c0.9,1.7,7.6,12.8,7.8,13.3c0.5,0.8,1.4,1.1,2.1,0.8c0.7-0.3,1.1-1.2,0.7-2C25,28.8,19.9,17,19,15.3
	c-0.4-0.8-1.2-2-2-3l-3.7,1.5C13.7,15,14.1,16.3,14.6,17.2z"/>
<path class="st0" d="M9.7,1.6c-0.1,0-0.2,0-0.2,0s-0.1,0-0.1,0.1C8,3.1,7.4,6.4,9.3,9.9c0.8,1.6,1.9,2.8,3.1,3.5
	c0.3,0.2,0.6,0.3,0.9,0.4l3.7-1.5c0.1-0.2,0.2-0.3,0.2-0.5c0.3-0.9,0.3-2.5-0.9-4.7c-1-1.8-2.4-2.4-3.7-3c-1.2-0.5-2.2-1-2.6-2.2
	C9.9,1.7,9.8,1.6,9.7,1.6z M15.1,7.3c0.1,0.1,1.3,1.3,1,3.3v0.1c-0.1,0.3-0.4,0.5-0.8,0.4c-0.2,0-0.3-0.2-0.5-0.3
	c-0.1-0.2-0.2-0.3-0.1-0.5c0.2-1.3-0.5-2.1-0.6-2.1C14,8,13.9,7.8,14,7.5c0,0,0,0,0-0.1s0.1-0.1,0.1-0.2C14.4,7,14.8,7,15.1,7.3z"/>
</svg>
