<?xml version="1.0" encoding="utf-8"?>
<!-- Generator: Adobe Illustrator 22.0.0, SVG Export Plug-In . SVG Version: 6.00 Build 0)  -->
<svg version="1.1" id="Capa_1" xmlns="http://www.w3.org/2000/svg" xmlns:xlink="http://www.w3.org/1999/xlink" x="0px" y="0px"
	 viewBox="0 0 512 512" style="enable-background:new 0 0 512 512;" xml:space="preserve">
<style type="text/css">
	.st0{fill:url(#SVGID_1_);}
	.st1{opacity:0.4;fill:url(#SVGID_2_);}
	.st2{fill:#000300;}
	.st3{fill:#1C1F1C;}
	.st4{fill:#393B39;}
	.st5{fill:#555755;}
	.st6{fill:#717371;}
	.st7{fill:#8E8F8E;}
	.st8{fill:#AAABAA;}
	.st9{fill:#C6C7C6;}
	.st10{fill:#E3E3E3;}
	.st11{fill:#FFFFFF;}
</style>
<g>
	<radialGradient id="SVGID_1_" cx="256.9035" cy="256.1555" r="250.0983" gradientUnits="userSpaceOnUse">
		<stop  offset="0" style="stop-color:#D4642B"/>
		<stop  offset="0.5" style="stop-color:#D3632B"/>
		<stop  offset="1" style="stop-color:#B64B2C"/>
	</radialGradient>
	<path class="st0" d="M507,256.2c0,138.1-112,250.1-250.1,250.1c-138.1,0-250.1-112-250.1-250.1C6.8,118,118.8,6.1,256.9,6.1
		C395,6.1,507,118,507,256.2z"/>
	<linearGradient id="SVGID_2_" gradientUnits="userSpaceOnUse" x1="254.6556" y1="25.7933" x2="254.6556" y2="322.0883">
		<stop  offset="0" style="stop-color:#969696"/>
		<stop  offset="1" style="stop-color:#000300"/>
	</linearGradient>
	<path class="st1" d="M254.7,335.5c-97.6,0-177-70.7-177-157.6c0-86.9,79.4-157.6,177-157.6c97.6,0,177,70.7,177,157.6
		c0,40.8-17.5,79.5-49.2,108.9C348.7,318.3,303.4,335.5,254.7,335.5z"/>
	<g>
		<path class="st2" d="M214.5,467.9c-3.3-1.3-6.5-2.9-9.6-4.8l1.2-2.6c7.3,2.6,15.4,4.7,24.1,6.1c13.8,2.3,29.5,3.1,45.2,2.2h0.4
			c7.5,0,19-2,29.2-5l0.9,2.8c-9.5,3.8-20.7,6.7-27.7,7.2l-0.3,0c-13.7,1.7-27.2,1.8-39.2,0.3C229.8,472.8,221.6,470.8,214.5,467.9z
			"/>
		<path class="st3" d="M208.8,461.4c0.7,0.2,1.3,0.5,2,0.7c6.2,2,13,3.7,20.3,4.9c0.7,0.1,1.4,0.2,2.2,0.3c7.5,1.1,15.5,1.8,23.7,2
			c5.2,0.1,10.5,0,15.9-0.2c0,0,0.4,0,0.4,0c2.4,0,5.2-0.2,8.2-0.6c5.9-0.7,12.6-2.1,18.9-3.8c0,0,0.9,2.5,0.9,2.5
			c-0.8,0.3-1.7,0.7-2.5,1c-8.1,2.9-17,5-22.9,5.4c0,0-0.2,0-0.2,0c-3.7,0.4-7.4,0.7-11,0.9c-8.8,0.5-17.3,0.2-25.1-0.8
			c-2.7-0.3-5.3-0.8-7.8-1.3c-5.3-1.1-10.2-2.5-14.7-4.3c-3.1-1.2-6-2.7-8.9-4.3C207.7,463.8,208.8,461.4,208.8,461.4z"/>
		<path class="st4" d="M211.3,462.4c0.6,0.2,1.2,0.4,1.8,0.6c5.7,1.9,12,3.3,18.6,4.4c0.7,0.1,1.3,0.2,2,0.3
			c6.9,1,14.2,1.6,21.7,1.8c4.8,0.1,9.7,0.1,14.6-0.2c0,0,0.3,0,0.3,0c2.2,0,4.7-0.2,7.5-0.5c5.4-0.6,11.6-1.8,17.3-3.3
			c0.1,0,0.9,2.2,0.9,2.2c-0.7,0.3-1.4,0.6-2.1,0.9c-7.5,2.6-15.5,4.4-21.1,4.7c0,0-0.2,0-0.2,0c-3.4,0.4-6.8,0.6-10.1,0.8
			c-8.1,0.4-15.9,0.1-23.1-0.8c-2.5-0.3-4.9-0.7-7.2-1.1c-4.9-1-9.4-2.2-13.5-3.8c-2.8-1.1-5.6-2.4-8.3-3.9
			C210.5,464.5,211.4,462.4,211.3,462.4z"/>
		<path class="st5" d="M213.9,463.4c0.6,0.2,1.1,0.4,1.7,0.5c5.2,1.7,10.9,2.9,17,3.9c0.6,0.1,1.2,0.2,1.8,0.3
			c6.3,0.9,13,1.5,19.8,1.7c4.4,0.1,8.8,0.1,13.3-0.1c0,0,0.3,0,0.3,0c2,0,4.3-0.1,6.8-0.4c4.9-0.5,10.5-1.5,15.8-2.8
			c0.1,0,0.8,1.8,0.9,1.8c-0.5,0.3-1.1,0.5-1.6,0.8c-6.8,2.2-14.1,3.8-19.2,4.1c0,0-0.2,0-0.2,0c-3.1,0.3-6.2,0.5-9.2,0.7
			c-7.3,0.3-14.4,0.1-21-0.7c-2.2-0.3-4.4-0.6-6.5-1c-4.4-0.8-8.6-2-12.3-3.4c-2.6-1-5.2-2.1-7.7-3.4
			C213.3,465.2,214,463.4,213.9,463.4z"/>
		<path class="st6" d="M216.4,464.4c0.5,0.2,1,0.3,1.5,0.5c4.8,1.4,9.9,2.6,15.3,3.4c0.5,0.1,1.1,0.2,1.6,0.2
			c5.7,0.8,11.7,1.3,17.8,1.5c3.9,0.1,7.9,0.1,11.9,0c0,0,0.3,0,0.3,0c1.8,0,3.9-0.1,6.2-0.3c4.5-0.4,9.5-1.3,14.3-2.3
			c0.1,0,0.8,1.5,0.9,1.5c-0.4,0.2-0.8,0.4-1.2,0.6c-6.1,1.9-12.7,3.2-17.3,3.4c0,0-0.2,0-0.2,0c-2.8,0.3-5.6,0.4-8.3,0.5
			c-6.6,0.2-13,0-18.9-0.7c-2-0.2-4-0.5-5.9-0.9c-4-0.7-7.7-1.7-11.1-2.9c-2.4-0.8-4.8-1.8-7.1-3C216,465.9,216.5,464.4,216.4,464.4
			z"/>
		<path class="st7" d="M218.9,465.4c0.5,0.1,0.9,0.3,1.3,0.4c4.3,1.2,8.8,2.2,13.7,2.9c0.5,0.1,1,0.1,1.5,0.2
			c5.1,0.7,10.4,1.2,15.9,1.4c3.5,0.1,7.1,0.2,10.6,0.1c0,0,0.2,0,0.3,0c1.7,0,3.5-0.1,5.5-0.2c4-0.3,8.5-1,12.7-1.8
			c0.2,0,0.8,1.2,0.9,1.2c-0.2,0.2-0.5,0.3-0.8,0.5c-5.4,1.5-11.2,2.6-15.5,2.7c0,0-0.2,0-0.2,0c-2.5,0.2-5,0.3-7.4,0.4
			c-5.9,0.2-11.6-0.1-16.9-0.7c-1.8-0.2-3.6-0.5-5.3-0.8c-3.5-0.6-6.9-1.5-10-2.5c-2.2-0.7-4.3-1.6-6.4-2.5
			C218.8,466.6,219.1,465.4,218.9,465.4z"/>
		<path class="st8" d="M221.5,466.3c0.4,0.1,0.8,0.2,1.2,0.3c3.8,1,7.8,1.8,12,2.5c0.4,0.1,0.9,0.1,1.3,0.2c4.5,0.6,9.1,1,13.9,1.2
			c3.1,0.1,6.2,0.2,9.3,0.1c0,0,0.2,0,0.2,0c1.5,0,3.1,0,4.8-0.1c3.6-0.2,7.5-0.7,11.2-1.3c0.2,0,0.7,0.9,0.9,0.9
			c-0.1,0.1-0.2,0.3-0.3,0.4c-4.8,1.1-9.8,2-13.6,2.1c0,0-0.1,0-0.1,0c-2.2,0.2-4.4,0.2-6.5,0.3c-5.1,0.1-10.1-0.1-14.8-0.7
			c-1.6-0.2-3.1-0.4-4.6-0.7c-3.1-0.5-6-1.2-8.8-2.1c-2-0.6-3.9-1.3-5.8-2.1C221.5,467.3,221.7,466.4,221.5,466.3z"/>
		<path class="st9" d="M224,467.3c0.4,0.1,0.7,0.2,1,0.3c3.3,0.8,6.7,1.5,10.3,2c0.4,0.1,0.7,0.1,1.1,0.2c3.9,0.5,7.9,0.9,12,1.1
			c2.6,0.1,5.3,0.2,8,0.2c0,0,0.2,0,0.2,0c1.3,0,2.7,0,4.1-0.1c3.1-0.1,6.4-0.4,9.6-0.8c0.2,0,0.7,0.6,0.9,0.6
			c0,0.1,0.1,0.2,0.1,0.3c-4.1,0.8-8.3,1.3-11.8,1.4c0,0-0.1,0-0.1,0c-1.9,0.1-3.7,0.1-5.6,0.2c-4.4,0-8.7-0.2-12.7-0.7
			c-1.4-0.2-2.7-0.3-4-0.5c-2.7-0.4-5.2-1-7.6-1.6c-1.8-0.5-3.5-1-5.2-1.6C224.3,468,224.3,467.4,224,467.3z"/>
		<path class="st10" d="M226.6,468.3c0.3,0.1,0.6,0.1,0.9,0.2c2.8,0.6,5.7,1.1,8.7,1.5c0.3,0,0.6,0.1,0.9,0.1
			c3.3,0.4,6.6,0.7,10,0.9c2.2,0.1,4.5,0.2,6.7,0.3c0,0,0.1,0,0.2,0c1.1,0,2.3,0,3.5,0c2.6,0,5.4-0.1,8.1-0.3c0.3,0,0.6,0.3,0.9,0.3
			c0.2,0,0.4,0.1,0.6,0.1c-3.4,0.4-6.9,0.7-9.9,0.8c0,0-0.1,0-0.1,0c-1.6,0-3.1,0-4.7,0c-3.7,0-7.2-0.3-10.6-0.6
			c-1.1-0.1-2.2-0.3-3.3-0.4c-2.2-0.3-4.3-0.7-6.4-1.2c-1.5-0.3-3.1-0.7-4.6-1.2C227,468.7,226.9,468.4,226.6,468.3z"/>
		<path class="st11" d="M229.8,469.4c2.5,0.4,5.1,0.8,7.8,1.1c2.6,0.3,5.3,0.6,8.1,0.8c2.7,0.2,5.5,0.4,8.3,0.5
			c2.8,0.1,5.6,0.2,8.5,0.2c-4.1,0.1-8.1,0.1-11.9,0c-3.9-0.2-7.6-0.5-11.3-0.9c-1.8-0.2-3.5-0.5-5.2-0.8c-1.7-0.3-3.4-0.6-5-1
			C229.4,469.3,229.6,469.4,229.8,469.4z"/>
	</g>
	<g>
		<path class="st2" d="M405,407.9c-1.8,0-3.6-1-4.8-2.7c-1.8-2.8-1.4-6.6,1-8.9c12.5-11.8,23.3-25.2,32.3-39.8
			c9-14.6,16.1-30.3,21.3-46.7c10.3-32.7,12.6-67.9,5.5-101.5c-4-19.1-10.8-36.8-20.1-52.8c-1.6-2.8-1.1-6.5,1.2-8.6
			c1.1-1,2.4-1.5,3.7-1.5c1.5,0,3,0.6,4.1,1.9c18,19.7,30.3,43.1,36.6,69.6c8.4,35.2,4.8,71.9-8.9,105.2
			c-6.8,16.6-16.1,32.4-27.7,46.7S423.8,396.2,408,407C407.1,407.6,406,407.9,405,407.9z"/>
		<path class="st3" d="M450.8,151.7c12.3,14,21.7,29.8,28.2,47.3c2.4,6.4,4.4,13.1,6,20c7.3,31.7,4.8,64.5-6.1,94.8
			c-0.8,2.1-1.5,4.2-2.4,6.3c-6.4,16-15.2,31.2-26.1,45.1c-6.3,8-13.4,15.6-21.1,22.7c-5.5,5.1-11.4,9.8-17.7,14.3
			c-0.9,0.6-1.9,1-2.9,1c-1.7,0.1-3.4-0.7-4.5-2.1c-1.4-2.7-0.9-6.4,1.3-8.6c10.2-10.1,19.2-21.3,27-33.3c1.3-2,2.5-4,3.7-6
			c7.7-13,14-26.9,18.7-41.3c0.5-1.5,1-3,1.4-4.5c9.7-32,11.7-66.3,4.8-99c-3.7-17.6-9.9-33.9-18.3-48.7c-1.5-2.6-1-6,1-8
			c0.9-0.9,2.1-1.4,3.3-1.4C448.5,150.1,449.8,150.6,450.8,151.7z"/>
		<path class="st4" d="M452.5,155.8c11.5,13.6,20.3,28.9,26.3,45.7c2.2,6.2,4.1,12.6,5.6,19.2c6.8,30.4,4.4,61.8-5.8,90.9
			c-0.7,2-1.4,4-2.2,6c-6,15.4-14.2,30.1-24.5,43.5c-5.9,7.8-12.5,15.1-19.7,22c-5.2,4.9-10.7,9.6-16.6,13.9c-0.8,0.6-1.7,1-2.7,1.1
			c-1.6,0.2-3.2-0.4-4.2-1.5c-1.1-2.6-0.5-6.1,1.6-8.3c9.7-10,18.2-21.1,25.5-33c1.2-1.9,2.4-3.9,3.5-5.9
			c7.3-12.8,13.2-26.4,17.6-40.4c0.5-1.5,0.9-2.9,1.3-4.4c9-31.3,10.8-64.7,4-96.5c-3.4-16-8.9-31.1-16.5-44.6
			c-1.3-2.4-1-5.5,0.8-7.3c0.8-0.8,1.8-1.3,2.8-1.4C450.5,154.6,451.6,155,452.5,155.8z"/>
		<path class="st5" d="M454.1,160c10.6,13.2,18.8,27.9,24.4,44.1c2.1,6,3.8,12.1,5.1,18.4c6.3,29.1,4,59.1-5.5,87
			c-0.7,1.9-1.3,3.9-2.1,5.8c-5.6,14.8-13.3,28.9-22.8,41.9c-5.5,7.5-11.6,14.6-18.4,21.3c-4.8,4.8-10,9.3-15.4,13.6
			c-0.8,0.6-1.6,1-2.5,1.2c-1.5,0.3-2.9,0-4-0.9c-0.7-2.6,0-5.8,2-8c9.1-10,17.2-21,24-32.7c1.1-1.9,2.2-3.9,3.3-5.8
			c6.8-12.6,12.4-25.9,16.5-39.6c0.4-1.4,0.8-2.9,1.2-4.3c8.4-30.5,9.9-63,3.3-94.1c-3.1-14.5-8-28.2-14.8-40.6
			c-1.2-2.2-0.9-4.9,0.5-6.6c0.7-0.8,1.5-1.2,2.4-1.4C452.4,159,453.4,159.3,454.1,160z"/>
		<path class="st6" d="M455.7,164.2c9.8,12.8,17.3,27,22.5,42.5c1.9,5.7,3.5,11.6,4.7,17.6c5.7,27.8,3.6,56.4-5.2,83.1
			c-0.6,1.8-1.3,3.7-1.9,5.5c-5.2,14.2-12.3,27.7-21.2,40.3c-5.1,7.2-10.8,14.1-17,20.6c-4.5,4.7-9.3,9.1-14.3,13.3
			c-0.7,0.6-1.5,1-2.3,1.2c-1.4,0.4-2.7,0.3-3.7-0.3c-0.4-2.5,0.4-5.6,2.3-7.7c8.6-10,16.1-20.8,22.6-32.4c1.1-1.9,2.1-3.8,3.1-5.7
			c6.4-12.4,11.6-25.4,15.4-38.8c0.4-1.4,0.8-2.8,1.1-4.2c7.8-29.8,9-61.4,2.6-91.6c-2.7-13-7.1-25.3-13-36.5c-1-1.9-0.9-4.4,0.3-6
			c0.5-0.7,1.2-1.2,1.9-1.3C454.4,163.5,455.1,163.7,455.7,164.2z"/>
		<path class="st7" d="M457.3,168.4c9,12.4,15.8,26.1,20.5,40.9c1.7,5.5,3.2,11.1,4.3,16.8c5.2,26.5,3.2,53.7-4.9,79.2
			c-0.6,1.8-1.2,3.5-1.8,5.3c-4.8,13.6-11.4,26.6-19.6,38.7c-4.7,6.9-9.9,13.6-15.7,19.9c-4.1,4.5-8.5,8.9-13.2,13
			c-0.7,0.6-1.4,1-2.1,1.3c-1.2,0.5-2.5,0.6-3.4,0.3c0-2.4,0.9-5.3,2.6-7.5c8-9.9,15.1-20.7,21.1-32c1-1.9,1.9-3.7,2.9-5.6
			c6-12.2,10.7-24.9,14.3-38c0.4-1.4,0.7-2.7,1.1-4.1c7.2-29.1,8.1-59.8,1.9-89.2c-2.4-11.5-6.2-22.4-11.2-32.4
			c-0.9-1.7-0.8-3.9,0.1-5.3c0.4-0.6,0.9-1.1,1.5-1.3C456.3,168,456.9,168,457.3,168.4z"/>
		<path class="st8" d="M458.9,172.5c8.1,12,14.3,25.1,18.6,39.3c1.6,5.2,2.9,10.6,3.9,16c4.7,25.2,2.8,51-4.6,75.3
			c-0.5,1.7-1.1,3.4-1.6,5c-4.4,12.9-10.4,25.4-17.9,37.1c-4.3,6.7-9.1,13.1-14.3,19.2c-3.8,4.4-7.8,8.6-12.1,12.7
			c-0.6,0.6-1.2,1-1.9,1.4c-1.1,0.6-2.2,0.9-3.1,0.9c0.3-2.3,1.3-5,3-7.2c7.5-9.9,14.1-20.5,19.7-31.7c0.9-1.8,1.8-3.7,2.7-5.5
			c5.5-11.9,9.9-24.4,13.1-37.2c0.3-1.3,0.7-2.7,1-4c6.5-28.4,7.2-58.2,1.2-86.7c-2.1-10-5.3-19.5-9.4-28.4
			c-0.7-1.5-0.7-3.3-0.1-4.6c0.3-0.6,0.6-1,1-1.2C458.3,172.5,458.6,172.4,458.9,172.5z"/>
		<path class="st9" d="M460.6,176.7c7.3,11.6,12.9,24.2,16.7,37.7c1.4,5,2.6,10.1,3.4,15.2c4.1,23.9,2.4,48.3-4.4,71.4
			c-0.5,1.6-1,3.2-1.5,4.8c-4,12.3-9.5,24.2-16.3,35.5c-3.9,6.4-8.2,12.6-13,18.5c-3.4,4.3-7.1,8.4-10.9,12.3
			c-0.5,0.6-1.1,1-1.7,1.4c-1,0.7-2,1.2-2.8,1.5c0.7-2.2,1.8-4.7,3.3-6.9c7-9.9,13.1-20.4,18.2-31.4c0.8-1.8,1.7-3.6,2.5-5.4
			c5.1-11.7,9.1-23.9,12-36.4c0.3-1.3,0.6-2.6,0.9-3.9c5.9-27.7,6.3-56.5,0.4-84.3c-1.8-8.5-4.4-16.6-7.7-24.3
			c-0.6-1.3-0.7-2.8-0.4-4c0.1-0.5,0.3-0.9,0.5-1.2C460.2,177,460.4,176.8,460.6,176.7z"/>
		<path class="st10" d="M462.2,180.9c6.5,11.2,11.4,23.2,14.8,36.1c1.2,4.8,2.2,9.6,3,14.4c3.6,22.6,2,45.6-4.1,67.5
			c-0.4,1.5-0.9,3-1.3,4.5c-3.6,11.7-8.6,23.1-14.7,33.9c-3.5,6.1-7.4,12-11.6,17.8c-3.1,4.1-6.3,8.1-9.8,12c-0.5,0.5-1,1-1.5,1.5
			c-0.9,0.8-1.7,1.5-2.6,2.1c1-2.2,2.2-4.5,3.6-6.6c6.4-9.8,12-20.2,16.7-31c0.8-1.8,1.5-3.6,2.2-5.3c4.7-11.5,8.3-23.5,10.9-35.6
			c0.3-1.3,0.5-2.5,0.8-3.8c5.3-26.9,5.4-54.9-0.3-81.8c-1.5-7-3.4-13.7-5.9-20.2c-0.4-1.1-0.6-2.3-0.6-3.3c0-0.4,0.1-0.8,0.1-1.2
			C462.1,181.4,462.2,181.1,462.2,180.9z"/>
		<path class="st11" d="M438.7,366.4c7.6-11.7,14-24.1,19.2-37.1c5.2-12.9,9.2-26.4,11.9-40.1c5.3-27.4,5.5-55.7-0.3-83.1
			c-1.5-7.2-3.4-14.3-5.7-21.2c5.6,10.8,9.9,22.3,12.8,34.5c6.1,25.6,5.4,52.1-1.2,77.3c-3.3,12.6-8.1,24.9-14.2,36.5
			c-3.1,5.8-6.5,11.5-10.2,17.1C447.2,356,443.1,361.3,438.7,366.4z"/>
	</g>
	<g>
		<path class="st2" d="M67,110.9c-37.3,52.2-52.3,115.8-36,177.5c2.4,8.9,5.4,17.6,8.9,26C25.1,244.4,36.4,172.3,67,110.9z"/>
		<path class="st3" d="M64.4,116.5C36.1,174.9,25.5,243,38.9,309.2c-3.2-8-6-16.2-8.1-24.6C16,226.3,29.9,166.2,64.4,116.5z"/>
		<path class="st4" d="M61.8,122c-26.1,55.5-35.9,119.5-24,181.9c-2.9-7.6-5.4-15.3-7.3-23.3C17.2,225.7,30.1,169.3,61.8,122z"/>
		<path class="st5" d="M59.1,127.5C35.3,180,26.3,240.1,36.7,298.6c-2.6-7.1-4.8-14.5-6.5-21.9C18.5,225.2,30.2,172.3,59.1,127.5z"
			/>
		<path class="st6" d="M56.5,133.1c-21.6,49.5-29.9,105.6-20.9,160.3c-2.3-6.7-4.2-13.6-5.7-20.6C19.8,224.7,30.4,175.4,56.5,133.1z
			"/>
		<path class="st7" d="M53.9,138.6C34.5,185.2,27,237.2,34.6,288.1c-2-6.3-3.6-12.7-4.9-19.2C21,224.2,30.5,178.5,53.9,138.6z"/>
		<path class="st8" d="M51.3,144.1c-17.1,43.6-23.9,91.7-17.8,138.8c-1.7-5.9-3-11.8-4-17.9C22.3,223.7,30.7,181.6,51.3,144.1z"/>
		<path class="st9" d="M48.7,149.7c-14.9,40.7-20.9,84.7-16.3,128c-1.3-5.4-2.4-11-3.2-16.5C23.6,223.2,30.9,184.6,48.7,149.7z"/>
		<path class="st10" d="M46.1,155.2c-12.7,37.7-17.9,77.7-14.7,117.2c-1-5-1.8-10.1-2.4-15.2C24.9,222.7,31,187.7,46.1,155.2z"/>
		<path class="st11" d="M30.3,267.1c-5.5-35.6-0.9-71.9,13.2-106.4C33,195.4,28.6,231.5,30.3,267.1z"/>
	</g>
</g>
</svg>
