<?xml version="1.0"?>
<svg xmlns="http://www.w3.org/2000/svg" xmlns:xlink="http://www.w3.org/1999/xlink" version="1.1" id="Capa_1" x="0px" y="0px" viewBox="0 0 496 496" style="enable-background:new 0 0 496 496;" xml:space="preserve" width="512px" height="512px" class=""><g><g>
	<g>
		<path d="M224,144.008v-64h-21.544c-1.128-3.2-2.416-6.328-3.848-9.344l15.216-15.224l-45.248-45.248L153.36,25.408    c-3.04-1.448-6.16-2.736-9.36-3.864V0H80v21.544c-3.2,1.128-6.32,2.416-9.352,3.848L55.432,10.176L10.176,55.432l15.216,15.224    C23.96,73.672,22.672,76.8,21.544,80H0v64h21.544c1.128,3.2,2.416,6.328,3.848,9.344l-15.216,15.224l45.248,45.248L70.64,198.6    c3.04,1.44,6.16,2.728,9.36,3.856V224h64v-21.544c3.2-1.128,6.32-2.416,9.352-3.848l15.216,15.216l45.248-45.248L198.6,153.352    c1.44-3.024,2.728-6.144,3.848-9.344H224z M191.192,168.568l-22.624,22.624l-12.32-12.312l-5.28,2.952    c-5.32,2.976-11.088,5.352-17.152,7.072L128,190.552V208H96v-17.448l-5.824-1.648c-6.064-1.72-11.832-4.096-17.152-7.072    l-5.28-2.952l-12.312,12.312l-22.624-22.624l12.32-12.32l-2.952-5.28c-2.976-5.32-5.36-11.088-7.08-17.152L33.448,128H16V96    h17.448l1.648-5.816c1.72-6.064,4.104-11.832,7.08-17.152l2.952-5.28l-12.32-12.32l22.624-22.624l12.32,12.312l5.28-2.952    c5.32-2.976,11.088-5.352,17.152-7.072L96,33.448V16h32v17.448l5.824,1.648c6.064,1.72,11.832,4.096,17.152,7.072l5.28,2.952    l12.32-12.312L191.2,55.432l-12.32,12.32l2.952,5.28c2.976,5.32,5.36,11.088,7.08,17.152l1.64,5.816H208v32h-17.448l-1.648,5.816    c-1.72,6.064-4.104,11.832-7.08,17.152l-2.952,5.28L191.192,168.568z" data-original="#000000" class="active-path" data-old_color="#FFFFFF" fill="#262626"/>
	</g>
</g><g>
	<g>
		<path d="M112,64c-26.472,0-48,21.528-48,48s21.528,48,48,48s48-21.528,48-48S138.472,64,112,64z M112,144    c-17.648,0-32-14.352-32-32s14.352-32,32-32s32,14.352,32,32S129.648,144,112,144z" data-original="#000000" class="active-path" data-old_color="#FFFFFF" fill="#262626"/>
	</g>
</g><g>
	<g>
		<path d="M367.736,457.944c-5.792-20.256-22.216-35.408-42.864-39.528L280,409.44v-2.104c14.8-8.592,25.824-22.928,30.048-39.952    C324.808,364.552,336,351.576,336,336v-36.84c0-50.272-40.888-91.16-91.16-91.16c-19.728,0-38.112,9.32-49.76,25.08    c-20.8,6.568-35.08,25.84-35.08,47.904V336c0,15.576,11.192,28.552,25.952,31.392c4.224,17.024,15.248,31.36,30.048,39.952v2.104    l-44.872,8.976c-20.648,4.128-37.072,19.272-42.856,39.528L117.392,496h261.216L367.736,457.944z M312,349.776v-27.544    c4.76,2.776,8,7.88,8,13.776S316.76,347,312,349.776z M184,349.768c-4.76-2.768-8-7.872-8-13.768s3.24-11,8-13.776V349.768z     M176,308.448v-27.464c0-15.744,10.664-29.4,25.936-33.224l3.008-0.752l1.712-2.576c8.528-12.8,22.808-20.44,38.184-20.44    C286.28,224,320,257.72,320,299.16v9.296c-4.728-2.76-10.144-4.456-16-4.456h-6.064c-19.752,0-38.312-7.688-52.28-21.656    L240,276.688l-12.688,12.688C217.88,298.808,205.336,304,192,304C186.144,304,180.728,305.696,176,308.448z M200,352v-32.536    c14.584-1.752,28.08-8.232,38.624-18.776l1.624-1.616c15.656,13.136,35.136,20.408,55.752,20.848V352c0,26.472-21.528,48-48,48    S200,378.472,200,352z M264,413.896V416c0,8.824-7.176,16-16,16c-8.824,0-16-7.176-16-16v-2.104    c5.128,1.328,10.464,2.104,16,2.104S258.872,415.224,264,413.896z M318.24,480l-6.488-25.936l-15.512,3.872L301.76,480H194.24    l5.512-22.064l-15.512-3.872L177.76,480h-39.152l5.048-17.664c4.136-14.464,15.856-25.28,30.608-28.232l43.168-8.632    C221.48,438.504,233.648,448,248,448s26.52-9.496,30.568-22.528l43.168,8.632c14.752,2.952,26.48,13.776,30.608,28.232    L357.392,480H318.24z" data-original="#000000" class="active-path" data-old_color="#FFFFFF" fill="#262626"/>
	</g>
</g><g>
	<g>
		<path d="M384,0c-61.76,0-112,50.24-112,112s50.24,112,112,112s112-50.24,112-112S445.76,0,384,0z M457.232,173.928l-16.664-16.672    l-11.312,11.312l16.664,16.672c-14.816,12.552-33.464,20.656-53.928,22.36V184h-16v23.592    c-20.464-1.704-39.112-9.808-53.928-22.36l16.664-16.672l-11.312-11.312l-16.664,16.672    c-12.552-14.816-20.656-33.464-22.36-53.928H312v-16h-23.592c1.704-20.464,9.808-39.104,22.36-53.928l16.664,16.672l11.312-11.312    L322.08,38.752c14.808-12.536,33.456-20.648,53.92-22.344V40h16V16.408c20.464,1.704,39.112,9.808,53.928,22.36L429.264,55.44    l11.312,11.312L457.24,50.08c12.552,14.816,20.656,33.464,22.36,53.928H456v16h23.591    C477.886,140.469,469.782,159.106,457.232,173.928z" data-original="#000000" class="active-path" data-old_color="#FFFFFF" fill="#262626"/>
	</g>
</g><g>
	<g>
		<polygon points="392,108.688 392,72 376,72 376,115.312 394.344,133.656 405.656,122.344   " data-original="#000000" class="active-path" data-old_color="#FFFFFF" fill="#262626"/>
	</g>
</g><g>
	<g>
		<path d="M416,240v184c0,7.512-3.584,14.688-9.592,19.2l-19.2,14.4l9.592,12.8l19.208-14.4C426.024,448.488,432,436.512,432,424    V240H416z" data-original="#000000" class="active-path" data-old_color="#FFFFFF" fill="#262626"/>
	</g>
</g><g>
	<g>
		<path d="M89.6,443.2c-6.016-4.512-9.6-11.688-9.6-19.2V240H64v184c0,12.512,5.976,24.488,16,32l19.2,14.4l9.592-12.8L89.6,443.2z" data-original="#000000" class="active-path" data-old_color="#FFFFFF" fill="#262626"/>
	</g>
</g><g>
	<g>
		<rect x="96" y="328" width="16" height="88" data-original="#000000" class="active-path" data-old_color="#FFFFFF" fill="#262626"/>
	</g>
</g><g>
	<g>
		<rect x="384" y="328" width="16" height="88" data-original="#000000" class="active-path" data-old_color="#FFFFFF" fill="#262626"/>
	</g>
</g><g>
	<g>
		<rect x="384" y="296" width="16" height="16" data-original="#000000" class="active-path" data-old_color="#FFFFFF" fill="#262626"/>
	</g>
</g><g>
	<g>
		<rect x="96" y="296" width="16" height="16" data-original="#000000" class="active-path" data-old_color="#FFFFFF" fill="#262626"/>
	</g>
</g></g> </svg>
